<svg xmlns="http://www.w3.org/2000/svg" viewBox="0 0 100 100"><g data-name="Ikone 2 copy 2"><path fill="#46b0ad" d="M14 46h29v3.65H14zM14 54h29v3.65H14zM14 62h29v3.65H14zM14 70h29v3.65H14zM14 14h29v3.65H14zM14 22h29v3.65H14zM14 30h29v3.65H14zM14 38h29v3.65H14zM14 78h29v3.65H14zM57 46h29v3.65H57zM57 54h29v3.65H57zM57 62h29v3.65H57zM57 70h29v3.65H57zM57 14h29v3.65H57zM57 22h29v3.65H57zM57 30h29v3.65H57zM57 38h29v3.65H57zM57 78h29v3.65H57z"/><circle cx="50" cy="92" r="3.47" fill="#942e53"/></g></svg>